<svg xmlns="http://www.w3.org/2000/svg" viewBox="0 0 800 500" role="img" aria-labelledby="title desc">
  <title id="title">Wajibati logo option 3 - school bridge</title>
  <desc id="desc">A school building and connection bridge logo for linking home and school.</desc>
  <defs>
    <linearGradient id="g3" x1="118" y1="116" x2="352" y2="330" gradientUnits="userSpaceOnUse">
      <stop stop-color="#f8fcf9"/>
      <stop offset="1" stop-color="#e5f3eb"/>
    </linearGradient>
    <filter id="shadow3" x="-20%" y="-20%" width="140%" height="140%">
      <feDropShadow dx="0" dy="18" stdDeviation="15" flood-color="#003f22" flood-opacity=".15"/>
    </filter>
  </defs>
  <rect x="98" y="80" width="262" height="262" rx="56" fill="url(#g3)" filter="url(#shadow3)"/>
  <path d="M162 213h137v86H162z" fill="#fff" stroke="#006233" stroke-width="12" stroke-linejoin="round"/>
  <path d="M143 210l88-72 88 72z" fill="#006233"/>
  <rect x="209" y="248" width="43" height="51" rx="20" fill="#006233"/>
  <rect x="175" y="230" width="24" height="24" rx="5" fill="#e5f3eb"/>
  <rect x="263" y="230" width="24" height="24" rx="5" fill="#e5f3eb"/>
  <path d="M293 172c25-31 68-29 92-2 20 22 20 56-1 78-24 27-67 28-91-3" fill="none" stroke="#d21034" stroke-width="14" stroke-linecap="round"/>
  <path d="M330 174h58v58" fill="none" stroke="#d21034" stroke-width="14" stroke-linecap="round" stroke-linejoin="round"/>
  <text x="592" y="206" text-anchor="middle" direction="rtl" font-family="Segoe UI, Tahoma, Arial, sans-serif" font-size="74" font-weight="800" fill="#006233">واجباتي</text>
  <text x="592" y="264" text-anchor="middle" font-family="Segoe UI, Arial, sans-serif" font-size="30" font-weight="700" letter-spacing="0" fill="#111f18">Family + School</text>
  <rect x="488" y="294" width="208" height="14" rx="7" fill="#d21034"/>
</svg>
